<?xml version="1.0" encoding="utf-8"?>
<!-- Generator: Adobe Illustrator 27.0.0, SVG Export Plug-In . SVG Version: 6.00 Build 0)  -->
<svg version="1.1" id="Layer_1" xmlns="http://www.w3.org/2000/svg" xmlns:xlink="http://www.w3.org/1999/xlink" x="0px" y="0px"
	 viewBox="0 0 1920 1080" style="enable-background:new 0 0 1920 1080;" xml:space="preserve">
<style type="text/css">
	.st0{fill:#FFFFFF;}
</style>
<g>
	<polygon class="st0" points="-41,1540 1959,1540 1959,-460 -41,-460 -41,1540 	"/>
	<path d="M421.54,396.35c0,136.24,158.82,247.06,354.04,247.06c195.21,0,354.03-110.82,354.03-247.06S970.79,149.29,775.58,149.29
		C580.36,149.29,421.54,260.11,421.54,396.35L421.54,396.35z M371.94,396.35c0-163.58,181.07-296.67,403.64-296.67
		c222.57,0,403.64,133.09,403.64,296.67c0,163.58-181.07,296.67-403.64,296.67C553.01,693.02,371.94,559.93,371.94,396.35
		L371.94,396.35z"/>
	<path d="M651.96,396.35c0,44.31,56.61,81.71,123.62,81.71c67,0,123.62-37.4,123.62-81.71c0-44.31-56.61-81.71-123.62-81.71
		C708.57,314.64,651.96,352.04,651.96,396.35L651.96,396.35z M602.36,396.35c0-72.43,77.7-131.32,173.22-131.32
		c95.51,0,173.22,58.89,173.22,131.32s-77.71,131.32-173.22,131.32C680.06,527.67,602.36,468.78,602.36,396.35L602.36,396.35z"/>
	<path d="M787.07,980.14h717.67c22.79,0,41.33-18.51,41.33-41.32V684.79c0-22.82-18.54-41.38-41.33-41.38H789.77
		c-13.69,0-24.8,11.1-24.8,24.81c0,13.7,11.11,24.81,24.8,24.81h706.7v237.5h-709.4c-37.41,0-365.53-7.13-365.53-254.02V428.78
		c0-13.7-11.1-24.81-24.8-24.81c-13.7,0-24.8,11.1-24.8,24.81V676.5C371.94,900.64,595.57,980.14,787.07,980.14L787.07,980.14z"/>
	<path d="M1361.1,980.14c13.69,0,24.8-11.1,24.8-24.81V668.6c0-13.7-11.11-24.81-24.8-24.81c-13.7,0-24.8,11.1-24.8,24.81v286.73
		C1336.3,969.03,1347.4,980.14,1361.1,980.14L1361.1,980.14z"/>
	<path d="M1153.6,680.26c13.69,0,24.8-11.1,24.8-24.81V405.08c0-13.7-11.11-24.81-24.8-24.81c-13.7,0-24.8,11.1-24.8,24.81v250.38
		C1128.8,669.15,1139.9,680.26,1153.6,680.26L1153.6,680.26z"/>
	<path d="M1078.69,972.9c13.69,0,24.8-11.1,24.8-24.81v-77.57c0-13.7-11.11-24.81-24.8-24.81c-13.7,0-24.8,11.1-24.8,24.81v77.57
		C1053.88,961.79,1064.99,972.9,1078.69,972.9L1078.69,972.9z"/>
	<path d="M1219.79,972.9c13.69,0,24.8-11.1,24.8-24.81V811.8c0-13.7-11.1-24.81-24.8-24.81c-13.7,0-24.81,11.1-24.81,24.81v136.29
		C1194.98,961.79,1206.09,972.9,1219.79,972.9L1219.79,972.9z"/>
	<path d="M800.14,972.9c13.7,0,24.8-11.1,24.8-24.81v-77.57c0-13.7-11.1-24.81-24.8-24.81c-13.7,0-24.8,11.1-24.8,24.81v77.57
		C775.34,961.79,786.44,972.9,800.14,972.9L800.14,972.9z"/>
	<path d="M941.24,972.9c13.7,0,24.8-11.1,24.8-24.81V811.8c0-13.7-11.1-24.81-24.8-24.81c-13.69,0-24.8,11.1-24.8,24.81v136.29
		C916.44,961.79,927.55,972.9,941.24,972.9L941.24,972.9z"/>
	<path d="M659.11,945.5c13.7,0,24.81-11.1,24.81-24.81V811.8c0-13.7-11.11-24.81-24.81-24.81c-13.69,0-24.8,11.1-24.8,24.81v108.89
		C634.31,934.39,645.41,945.5,659.11,945.5L659.11,945.5z"/>
	<path d="M1411.35,814.73c0-16.68,13.59-30.28,30.31-30.28c16.71,0,30.3,13.59,30.3,30.28c0,16.74-13.59,30.33-30.3,30.33
		C1424.94,845.06,1411.35,831.47,1411.35,814.73L1411.35,814.73z"/>
</g>
</svg>
