<?xml version="1.0" encoding="utf-8"?>
<!-- Generator: Adobe Illustrator 26.2.1, SVG Export Plug-In . SVG Version: 6.00 Build 0)  -->
<svg version="1.1" id="Layer_1" xmlns="http://www.w3.org/2000/svg" xmlns:xlink="http://www.w3.org/1999/xlink" x="0px" y="0px"
	 viewBox="0 0 2000 2000" enable-background="new 0 0 2000 2000" xml:space="preserve">
<g>
	<polygon fill="#FFFFFF" points="-1,2000 1999,2000 1999,0 -1,0 -1,2000 	"/>
	<path d="M461.54,856.35c0,136.24,158.82,247.06,354.04,247.06c195.21,0,354.03-110.82,354.03-247.06s-158.82-247.06-354.03-247.06
		C620.36,609.29,461.54,720.11,461.54,856.35L461.54,856.35z M411.94,856.35c0-163.58,181.07-296.67,403.64-296.67
		c222.57,0,403.64,133.09,403.64,296.67c0,163.58-181.07,296.67-403.64,296.67C593.01,1153.02,411.94,1019.93,411.94,856.35
		L411.94,856.35z"/>
	<path d="M691.96,856.35c0,44.31,56.61,81.71,123.62,81.71c67,0,123.62-37.4,123.62-81.71c0-44.31-56.61-81.71-123.62-81.71
		C748.57,774.64,691.96,812.04,691.96,856.35L691.96,856.35z M642.36,856.35c0-72.43,77.7-131.32,173.22-131.32
		c95.51,0,173.22,58.89,173.22,131.32s-77.71,131.32-173.22,131.32C720.06,987.67,642.36,928.78,642.36,856.35L642.36,856.35z"/>
	<path d="M827.07,1440.14h717.67c22.79,0,41.33-18.51,41.33-41.32v-254.02c0-22.82-18.54-41.38-41.33-41.38H829.77
		c-13.69,0-24.8,11.1-24.8,24.81c0,13.7,11.11,24.81,24.8,24.81h706.7v237.5h-709.4c-37.41,0-365.53-7.13-365.53-254.02V888.78
		c0-13.7-11.1-24.81-24.8-24.81c-13.7,0-24.8,11.1-24.8,24.81v247.72C411.94,1360.64,635.57,1440.14,827.07,1440.14L827.07,1440.14z
		"/>
	<path d="M1401.1,1440.14c13.69,0,24.8-11.1,24.8-24.81V1128.6c0-13.7-11.11-24.81-24.8-24.81c-13.7,0-24.8,11.1-24.8,24.81v286.73
		C1376.3,1429.03,1387.4,1440.14,1401.1,1440.14L1401.1,1440.14z"/>
	<path d="M1193.6,1140.26c13.69,0,24.8-11.1,24.8-24.81V865.08c0-13.7-11.11-24.81-24.8-24.81c-13.7,0-24.8,11.1-24.8,24.81v250.38
		C1168.8,1129.15,1179.9,1140.26,1193.6,1140.26L1193.6,1140.26z"/>
	<path d="M1118.69,1432.9c13.69,0,24.8-11.1,24.8-24.81v-77.57c0-13.7-11.11-24.81-24.8-24.81c-13.7,0-24.8,11.1-24.8,24.81v77.57
		C1093.88,1421.79,1104.99,1432.9,1118.69,1432.9L1118.69,1432.9z"/>
	<path d="M1259.79,1432.9c13.69,0,24.8-11.1,24.8-24.81V1271.8c0-13.7-11.1-24.81-24.8-24.81c-13.7,0-24.81,11.1-24.81,24.81v136.29
		C1234.98,1421.79,1246.09,1432.9,1259.79,1432.9L1259.79,1432.9z"/>
	<path d="M840.14,1432.9c13.7,0,24.8-11.1,24.8-24.81v-77.57c0-13.7-11.1-24.81-24.8-24.81c-13.7,0-24.8,11.1-24.8,24.81v77.57
		C815.34,1421.79,826.44,1432.9,840.14,1432.9L840.14,1432.9z"/>
	<path d="M981.24,1432.9c13.7,0,24.8-11.1,24.8-24.81V1271.8c0-13.7-11.1-24.81-24.8-24.81c-13.69,0-24.8,11.1-24.8,24.81v136.29
		C956.44,1421.79,967.55,1432.9,981.24,1432.9L981.24,1432.9z"/>
	<path d="M699.11,1405.5c13.7,0,24.81-11.1,24.81-24.81V1271.8c0-13.7-11.11-24.81-24.81-24.81c-13.69,0-24.8,11.1-24.8,24.81
		v108.89C674.31,1394.39,685.41,1405.5,699.11,1405.5L699.11,1405.5z"/>
	<path d="M1451.35,1274.73c0-16.68,13.59-30.28,30.31-30.28c16.71,0,30.3,13.59,30.3,30.28c0,16.74-13.59,30.33-30.3,30.33
		C1464.94,1305.06,1451.35,1291.47,1451.35,1274.73L1451.35,1274.73z"/>
</g>
</svg>
